# Blender v2.92.0 OBJ File: ''
# www.blender.org
mtllib desk_leftback.mtl
o desk4.005_Cube.006
v -0.425221 -0.520132 -0.308186
v -0.287239 0.117779 -0.274665
v -0.425221 -0.520132 -0.285868
v -0.447538 -0.520132 -0.308186
v -0.353087 0.117779 -0.274665
v -0.447538 -0.520132 -0.285868
v -0.353087 0.117779 -0.208816
v -0.287239 0.117779 -0.208816
vt 0.625000 0.750000
vt 0.625000 1.000000
vt 0.375000 1.000000
vt 0.625000 0.000000
vt 0.375000 0.250000
vt 0.375000 0.000000
vt 0.375000 0.500000
vt 0.125000 0.750000
vt 0.125000 0.500000
vt 0.375000 0.750000
vt 0.625000 0.500000
vt 0.625000 0.250000
vn 0.0000 0.0525 -0.9986
vn 0.9774 -0.2114 0.0000
vn 0.0000 -1.0000 0.0000
vn -0.9892 0.1465 0.0000
vn 0.0000 -0.1199 0.9928
usemtl BlackWood
s 1
f 5/1/1 2/2/1 1/3/1
f 2/4/2 3/5/2 1/6/2
f 6/7/3 1/8/3 3/9/3
f 6/7/3 4/10/3 1/8/3
f 5/1/1 1/3/1 4/10/1
f 6/7/4 7/11/4 5/1/4
f 3/5/5 7/11/5 6/7/5
f 6/7/4 5/1/4 4/10/4
f 3/5/5 8/12/5 7/11/5
f 2/4/2 8/12/2 3/5/2
