# Blender v2.92.0 OBJ File: ''
# www.blender.org
mtllib desktop.mtl
o desk4_Cube.004
v 0.554442 0.219627 0.227900
v 0.554442 0.138020 -0.322100
v 0.554442 0.219627 -0.322100
v 0.571599 0.239868 0.227900
v 0.571599 0.117779 0.227900
v -0.528401 0.239868 0.227900
v -0.528401 0.117779 0.227900
v 0.571599 0.239868 -0.322100
v 0.571599 0.117779 -0.322100
v -0.528401 0.239868 -0.322100
v -0.528401 0.117779 -0.322100
v 0.554442 0.138020 0.227900
v 0.139266 0.138020 -0.322100
v -0.511243 0.219627 -0.322100
v 0.139266 0.219627 -0.322100
v -0.511243 0.138020 -0.322100
v -0.511243 0.138020 0.227900
v 0.159506 0.219627 -0.322100
v -0.511243 0.219627 0.227900
v 0.159506 0.138020 -0.322100
v 0.139266 0.219627 0.227900
v 0.139266 0.138020 0.227900
v 0.159506 0.138020 0.227900
v 0.159506 0.219627 0.227900
v -0.505172 0.143514 0.227900
v 0.133195 0.143514 0.227900
v -0.505172 0.214133 0.227900
v -0.505172 0.143514 0.215753
v 0.133195 0.143514 0.215753
v -0.505172 0.214133 0.215753
v 0.133195 0.214133 0.215753
v 0.133195 0.214133 0.227900
v -0.515995 0.134197 0.215753
v 0.144018 0.134197 0.215753
v -0.515995 0.223450 0.215753
v 0.144018 0.223450 0.215753
vt 0.586281 0.750000
vt 0.586281 0.750000
vt 0.586281 0.750000
vt 0.586281 0.750000
vt 0.375000 0.750000
vt 0.375000 0.750000
vt 0.625000 0.750000
vt 0.625000 0.750000
vt 0.625000 0.750000
vt 0.625000 0.750000
vt 0.375000 0.750000
vt 0.375000 0.750000
vt 0.600726 0.750000
vt 0.399274 0.750000
vt 0.399274 0.750000
vt 0.600726 0.750000
vt 0.413719 0.750000
vt 0.399274 0.750000
vt 0.600726 0.750000
vt 0.600726 0.750000
vt 0.399274 0.750000
vt 0.413719 0.750000
vt 0.413719 0.750000
vt 0.413719 0.750000
vt 0.399274 0.750000
vt 0.399274 0.750000
vt 0.600726 0.750000
vt 0.600726 0.750000
vt 0.412837 0.750000
vt 0.412837 0.750000
vt 0.587163 0.750000
vt 0.587163 0.750000
vt 0.587163 0.750000
vt 0.587163 0.750000
vt 0.587163 0.750000
vt 0.587163 0.750000
vt 0.412837 0.750000
vt 0.412837 0.750000
vt 0.587163 0.750000
vt 0.587163 0.750000
vn 0.0000 -1.0000 0.0000
vn 1.0000 0.0000 0.0000
vn -1.0000 0.0000 0.0000
vn 0.0000 0.0000 1.0000
vn 0.0000 0.0000 -1.0000
vn 0.0000 1.0000 -0.0000
usemtl BlackWood
s 1
f 14/1/1 3/2/1 1/3/1 19/4/1
f 5/5/2 9/6/2 8/7/2 4/8/2
f 6/9/3 10/10/3 11/11/3 7/12/3
f 1/13/4 12/14/4 5/5/4 4/8/4
f 17/15/4 19/16/4 6/9/4 7/12/4
f 11/11/1 9/6/1 5/5/1 7/12/1
f 2/17/5 3/2/5 8/7/5 9/6/5
f 19/16/4 1/13/4 4/8/4 6/9/4
f 8/7/6 10/10/6 6/9/6 4/8/6
f 13/18/5 15/19/5 18/20/5 20/21/5
f 14/1/5 16/22/5 11/11/5 10/10/5
f 2/17/6 16/22/6 17/23/6 12/24/6
f 3/2/3 2/17/3 12/24/3 1/3/3
f 22/25/4 23/26/4 24/27/4 21/28/4
f 16/22/2 14/1/2 19/16/2 17/23/2
f 12/14/4 17/15/4 7/12/4 5/5/4
f 21/28/3 15/19/3 13/18/3 22/25/3
f 23/26/2 20/21/2 18/20/2 24/27/2
f 10/10/5 8/7/5 3/2/5 14/1/5
f 11/11/5 16/22/5 2/17/5 9/6/5
f 13/18/5 16/22/5 14/1/5 15/19/5
f 26/29/1 25/30/1 28/31/1 29/32/1
f 25/30/4 26/29/4 32/33/4 27/34/4
f 27/34/3 30/35/3 28/31/3 25/30/3
f 31/36/6 30/35/6 27/34/6 32/33/6
f 26/29/2 29/32/2 31/36/2 32/33/2
f 33/37/4 34/38/4 36/39/4 35/40/4
