# Blender v2.92.0 OBJ File: ''
# www.blender.org
mtllib tableleg_left.mtl
o desk4.003_Cube.003
v -0.425221 -0.520132 0.213985
v -0.425221 -0.520132 0.191668
v -0.287239 0.117779 0.180464
v -0.447538 -0.520132 0.213985
v -0.447538 -0.520132 0.191668
v -0.353087 0.117779 0.180464
v -0.353087 0.117779 0.114616
v -0.287239 0.117779 0.114616
vt 0.125000 0.500000
vt 0.125000 0.750000
vt 0.375000 0.750000
vt 0.375000 0.500000
vt 0.375000 0.000000
vt 0.375000 0.250000
vt 0.625000 0.250000
vt 0.625000 0.000000
vt 0.375000 1.000000
vt 0.625000 1.000000
vt 0.625000 0.750000
vt 0.625000 0.500000
vn 0.0000 -1.0000 0.0000
vn 0.9774 -0.2114 0.0000
vn 0.0000 0.0525 0.9986
vn -0.9892 0.1465 0.0000
vn 0.0000 -0.1199 -0.9928
usemtl BlackWood
s 1
f 2/1/1 1/2/1 4/3/1 5/4/1
f 1/5/2 2/6/2 8/7/2 3/8/2
f 4/3/3 1/9/3 3/10/3 6/11/3
f 5/4/4 4/3/4 6/11/4 7/12/4
f 2/6/5 5/4/5 7/12/5 8/7/5
