# Blender v2.92.0 OBJ File: 'miku_test.blend'
# www.blender.org
mtllib eyes.mtl
o Miku.006_Plane.006
v 0.032579 1.393374 0.038649
v 0.053694 1.394718 0.029202
v 0.038151 1.398782 0.039003
v 0.028480 1.408978 0.047498
v 0.029311 1.420888 0.053927
v 0.034866 1.409447 0.044614
v 0.036302 1.420439 0.050109
v 0.043435 1.412130 0.041012
v 0.045465 1.421729 0.048051
v 0.053602 1.419338 0.040635
v 0.052595 1.406826 0.034300
v 0.048703 1.398609 0.033710
v 0.058504 1.405070 0.030794
v 0.059765 1.418969 0.039664
v 0.066223 1.404814 0.027054
v 0.065596 1.416865 0.031751
v 0.071008 1.414580 0.027889
v 0.069614 1.424158 0.034140
v 0.052566 1.426631 0.050432
v 0.047033 1.423408 0.048953
v 0.022846 1.424796 0.057935
v 0.023122 1.420522 0.053187
v -0.032579 1.393374 0.038649
v -0.053694 1.394718 0.029202
v -0.038151 1.398782 0.039003
v -0.028480 1.408978 0.047498
v -0.029311 1.420888 0.053927
v -0.034866 1.409447 0.044614
v -0.036302 1.420439 0.050109
v -0.043435 1.412130 0.041012
v -0.045465 1.421729 0.048051
v -0.053602 1.419338 0.040635
v -0.052595 1.406826 0.034300
v -0.048703 1.398609 0.033710
v -0.058504 1.405070 0.030794
v -0.059765 1.418969 0.039664
v -0.066223 1.404814 0.027054
v -0.065596 1.416865 0.031751
v -0.071008 1.414580 0.027889
v -0.069614 1.424158 0.034140
v -0.052566 1.426631 0.050432
v -0.047033 1.423408 0.048953
v -0.022846 1.424796 0.057935
v -0.023122 1.420522 0.053187
vt 0.217819 0.968935
vt 0.217819 0.968935
vt 0.217819 0.968935
vt 0.217819 0.968935
vt 0.217819 0.968935
vt 0.217819 0.968935
vt 0.217819 0.968935
vt 0.217819 0.968935
vt 0.156631 0.968935
vt 0.156631 0.968935
vt 0.156631 0.968935
vt 0.156631 0.968935
vt 0.156631 0.968935
vt 0.156631 0.968935
vt 0.156631 0.968935
vt 0.156631 0.968935
vt 0.217819 0.968935
vt 0.217819 0.968935
vt 0.217819 0.968935
vt 0.217819 0.968935
vt 0.034255 0.968935
vt 0.034255 0.968935
vt 0.034255 0.968935
vt 0.034255 0.968935
vt 0.034255 0.968935
vt 0.156631 0.968935
vt 0.156631 0.968935
vt 0.156631 0.968935
vt 0.156631 0.968935
vt 0.156631 0.968935
vt 0.156631 0.968935
vt 0.156631 0.968935
vt 0.156631 0.968935
vt 0.156631 0.968935
vt 0.156631 0.968935
vt 0.217819 0.968935
vt 0.217819 0.968935
vt 0.217819 0.968935
vt 0.217819 0.968935
vt 0.217819 0.968935
vt 0.217819 0.968935
vt 0.217819 0.968935
vt 0.217819 0.968935
vt 0.217819 0.968935
vt 0.217819 0.968935
vt 0.156631 0.968935
vt 0.156631 0.968935
vt 0.156631 0.968935
vt 0.156631 0.968935
vt 0.156631 0.968935
vt 0.156631 0.968935
vt 0.156631 0.968935
vt 0.156631 0.968935
vt 0.217819 0.968935
vt 0.217819 0.968935
vt 0.217819 0.968935
vt 0.217819 0.968935
vt 0.034255 0.968935
vt 0.034255 0.968935
vt 0.034255 0.968935
vt 0.034255 0.968935
vt 0.034255 0.968935
vt 0.156631 0.968935
vt 0.156631 0.968935
vt 0.156631 0.968935
vt 0.156631 0.968935
vt 0.156631 0.968935
vt 0.156631 0.968935
vt 0.156631 0.968935
vt 0.156631 0.968935
vt 0.156631 0.968935
vt 0.156631 0.968935
vt 0.217819 0.968935
vt 0.217819 0.968935
vn 0.3913 -0.4456 0.8052
vn 0.3625 -0.3692 0.8558
vn 0.3996 -0.4542 0.7963
vn 0.4618 -0.4442 0.7678
vn 0.4485 -0.3040 0.8405
vn 0.2546 -0.6063 0.7534
vn 0.4428 -0.5892 0.6758
vn 0.3466 -0.4458 0.8253
vn 0.4243 -0.2967 0.8556
vn 0.4581 -0.2775 0.8445
vn 0.4341 -0.3103 0.8457
vn 0.4295 -0.3211 0.8440
vn 0.4534 -0.3106 0.8354
vn 0.2221 -0.5007 0.8366
vn 0.4045 -0.3197 0.8568
vn 0.5585 -0.3950 0.7294
vn 0.4671 -0.2999 0.8318
vn 0.4902 -0.5265 0.6946
vn 0.5189 -0.5104 0.6857
vn 0.5038 -0.5187 0.6907
vn 0.4760 -0.5344 0.6985
vn 0.2577 -0.5678 0.7818
vn -0.0358 -0.7438 0.6674
vn 0.2688 -0.7240 0.6353
vn 0.1467 -0.8379 0.5258
vn -0.3913 -0.4456 0.8052
vn -0.3625 -0.3692 0.8558
vn -0.3996 -0.4542 0.7963
vn -0.4618 -0.4442 0.7678
vn -0.4485 -0.3040 0.8405
vn -0.2546 -0.6063 0.7534
vn -0.4428 -0.5892 0.6758
vn -0.3466 -0.4458 0.8253
vn -0.4243 -0.2967 0.8556
vn -0.4581 -0.2775 0.8445
vn -0.4341 -0.3103 0.8457
vn -0.4534 -0.3106 0.8354
vn -0.4295 -0.3211 0.8440
vn -0.2221 -0.5007 0.8366
vn -0.4045 -0.3197 0.8568
vn -0.5585 -0.3950 0.7294
vn -0.4671 -0.2999 0.8318
vn -0.4902 -0.5265 0.6946
vn -0.5039 -0.5187 0.6907
vn -0.5189 -0.5104 0.6857
vn -0.4760 -0.5344 0.6985
vn -0.2577 -0.5678 0.7818
vn 0.0358 -0.7438 0.6674
vn -0.2688 -0.7240 0.6353
vn -0.1467 -0.8379 0.5258
usemtl colors_miku.002
s 1
f 1/1/1 2/2/1 12/3/1 3/4/1
f 4/5/2 1/1/2 3/4/2 6/6/2
f 5/7/3 4/5/3 6/6/3 7/8/3
f 7/9/4 6/10/4 8/11/4
f 6/10/5 3/12/5 8/11/5
f 7/9/6 8/11/6 9/13/6
f 10/14/7 9/13/7 8/11/7
f 11/15/8 10/14/8 8/11/8
f 3/12/9 12/16/9 8/11/9
f 12/16/10 11/15/10 8/11/10
f 2/2/11 13/17/12 11/18/13 12/3/13
f 13/17/14 14/19/14 10/20/14 11/18/14
f 13/21/12 2/22/11 15/23/15
f 16/24/16 14/25/16 13/21/16 15/23/16
f 17/26/17 16/27/17 15/28/17
f 14/29/18 16/27/19 17/26/19 18/30/20
f 14/29/18 18/30/20 19/31/21 20/32/21
f 20/32/22 19/31/22 21/33/22 5/34/22
f 22/35/23 5/34/23 21/33/23
f 5/7/24 7/8/24 9/36/24 20/37/24
f 14/19/25 20/37/25 9/36/25 10/20/25
f 23/38/26 25/39/26 34/40/26 24/41/26
f 26/42/27 28/43/27 25/39/27 23/38/27
f 27/44/28 29/45/28 28/43/28 26/42/28
f 29/46/29 30/47/29 28/48/29
f 28/48/30 30/47/30 25/49/30
f 29/46/31 31/50/31 30/47/31
f 32/51/32 30/47/32 31/50/32
f 33/52/33 30/47/33 32/51/33
f 25/49/34 30/47/34 34/53/34
f 34/53/35 30/47/35 33/52/35
f 24/41/36 34/40/37 33/54/37 35/55/38
f 35/55/39 33/54/39 32/56/39 36/57/39
f 35/58/38 37/59/40 24/60/36
f 38/61/41 37/59/41 35/58/41 36/62/41
f 39/63/42 37/64/42 38/65/42
f 36/66/43 40/67/44 39/63/45 38/65/45
f 36/66/43 42/68/46 41/69/46 40/67/44
f 42/68/47 27/70/47 43/71/47 41/69/47
f 44/72/48 43/71/48 27/70/48
f 27/44/49 42/73/49 31/74/49 29/45/49
f 36/57/50 32/56/50 31/74/50 42/73/50
