# Blender v2.92.0 OBJ File: 'miku_test.blend'
# www.blender.org
mtllib forearms.mtl
o Miku.011_Plane.011
v 0.128255 1.304979 0.024978
v 0.076749 1.284414 0.024505
v 0.111758 1.073961 0.109789
v 0.173742 1.083508 0.106084
v 0.153808 1.102583 0.170924
v 0.112629 1.319425 0.103400
v 0.089266 1.091642 0.160348
v 0.045763 1.303470 0.107895
v 0.177249 1.052248 0.136023
v 0.112707 1.041307 0.125447
v -0.128255 1.304979 0.024978
v -0.076749 1.284414 0.024505
v -0.111758 1.073961 0.109789
v -0.173742 1.083508 0.106084
v -0.153808 1.102583 0.170924
v -0.112629 1.319425 0.103400
v -0.089266 1.091642 0.160348
v -0.045763 1.303470 0.107895
v -0.177249 1.052248 0.136023
v -0.112707 1.041307 0.125447
vt 0.156631 0.968935
vt 0.156631 0.968935
vt 0.156631 0.968935
vt 0.156631 0.968935
vt 0.156631 0.968935
vt 0.156631 0.968935
vt 0.156631 0.968935
vt 0.156631 0.968935
vt 0.156631 0.968935
vt 0.156631 0.968935
vt 0.156631 0.968935
vt 0.156631 0.968935
vt 0.156631 0.968935
vt 0.156631 0.968935
vt 0.156631 0.968935
vt 0.156631 0.968935
vt 0.156631 0.968935
vt 0.156631 0.968935
vt 0.156631 0.968935
vt 0.156631 0.968935
vn -0.9214 -0.1610 -0.3537
vn -0.5542 0.4690 -0.6877
vn 0.3841 0.7193 -0.5788
vn 0.9802 -0.1353 -0.1444
vn 0.7385 -0.1296 0.6616
vn 0.0524 0.9794 0.1948
vn -0.5285 -0.3030 0.7930
vn -0.5891 0.7853 0.1903
vn -0.4797 -0.8067 0.3450
vn 0.6728 -0.5163 0.5300
vn 0.9214 -0.1610 -0.3537
vn -0.3841 0.7193 -0.5788
vn 0.5542 0.4690 -0.6877
vn -0.9802 -0.1353 -0.1444
vn -0.7385 -0.1296 0.6616
vn -0.0524 0.9794 0.1948
vn 0.5285 -0.3031 0.7930
vn 0.5891 0.7853 0.1903
vn -0.6728 -0.5163 0.5300
vn 0.4797 -0.8067 0.3450
usemtl colors_miku.002
s 1
f 3/1/1 2/2/2 1/3/3
f 3/1/1 1/3/3 4/4/4
f 5/5/5 4/4/4 1/3/3
f 5/5/5 1/3/3 6/6/6
f 7/7/7 5/5/5 6/6/6
f 7/7/7 6/6/6 8/8/8
f 7/7/7 8/8/8 2/2/2
f 7/7/7 2/2/2 3/1/1
f 5/5/5 10/9/9 9/10/10
f 3/1/1 10/9/9 7/7/7
f 5/5/5 9/10/10 4/4/4
f 5/5/5 7/7/7 10/9/9
f 13/11/11 11/12/12 12/13/13
f 13/11/11 14/14/14 11/12/12
f 15/15/15 11/12/12 14/14/14
f 15/15/15 16/16/16 11/12/12
f 17/17/17 16/16/16 15/15/15
f 17/17/17 18/18/18 16/16/16
f 17/17/17 12/13/13 18/18/18
f 17/17/17 13/11/11 12/13/13
f 15/15/15 19/19/19 20/20/20
f 13/11/11 17/17/17 20/20/20
f 15/15/15 14/14/14 19/19/19
f 15/15/15 20/20/20 17/17/17
