# Blender v2.92.0 OBJ File: 'miku_test.blend'
# www.blender.org
mtllib head_test2.mtl
o Miku.003_Plane.003
v 0.096957 1.465957 -0.013552
v 0.083322 1.407759 -0.022922
v 0.070871 1.454112 0.043208
v 0.071937 1.418281 -0.079379
v 0.046601 1.376131 -0.077583
v 0.064551 1.364942 -0.024298
v 0.023429 1.345359 -0.059337
v 0.024307 1.272119 -0.066967
v 0.046659 1.362538 0.030980
v 0.057211 1.391812 0.025470
v -0.096957 1.465957 -0.013552
v -0.083322 1.407759 -0.022922
v -0.070871 1.454112 0.043208
v -0.071937 1.418281 -0.079379
v 0.000000 1.416561 -0.127058
v -0.046601 1.376131 -0.077583
v -0.064551 1.364942 -0.024298
v 0.000000 1.366189 -0.094648
v -0.023429 1.345359 -0.059337
v 0.000000 1.273939 -0.097483
v -0.024307 1.272119 -0.066967
v 0.000000 1.324702 -0.028505
v 0.000000 1.304725 0.017557
v 0.000000 1.265672 -0.036073
v 0.000000 1.361951 0.070143
v -0.046659 1.362538 0.030980
v 0.000000 1.304725 0.017557
v 0.000000 1.361951 0.070143
v 0.000000 1.304725 0.017557
v 0.000000 1.361951 0.070143
v -0.057211 1.391812 0.025470
v 0.000000 1.384486 0.047979
v 0.000000 1.447398 0.075387
v 0.000000 1.517730 0.064952
v 0.000000 1.471954 -0.031725
v 0.000000 1.471954 -0.031725
vt 0.279007 0.968935
vt 0.279007 0.968935
vt 0.279007 0.968935
vt 0.279007 0.968935
vt 0.279007 0.968935
vt 0.279007 0.968935
vt 0.279007 0.968935
vt 0.279007 0.968935
vt 0.279007 0.968935
vt 0.279007 0.968935
vt 0.279007 0.968935
vt 0.279007 0.968935
vt 0.279007 0.968935
vt 0.279007 0.968935
vt 0.279007 0.968935
vt 0.279007 0.968935
vt 0.279007 0.968935
vt 0.279007 0.968935
vt 0.279007 0.968935
vt 0.279007 0.968935
vt 0.000000 0.000000
vt 0.000000 0.000000
vt 0.279007 0.968935
vt 0.279007 0.968935
vt 0.279007 0.968935
vt 0.279007 0.968935
vt 0.279007 0.968935
vt 0.279007 0.968935
vt 0.279007 0.968935
vt 0.279007 0.968935
vt 0.279007 0.968935
vt 0.279007 0.968935
vt 0.279007 0.968935
vt 0.279007 0.968935
vt 0.279007 0.968935
vt 0.279007 0.968935
vn 0.9626 0.0628 -0.2635
vn 0.9416 -0.3355 0.0283
vn 0.6772 0.3568 -0.6435
vn 0.8501 -0.0770 0.5210
vn 0.6133 -0.5411 -0.5754
vn 0.3696 0.2515 -0.8945
vn 0.8177 -0.5715 -0.0686
vn 0.7967 -0.5138 -0.3183
vn -0.0047 -0.4913 -0.8710
vn 0.0000 -0.5086 -0.8610
vn 0.8202 -0.5606 -0.1140
vn 0.0000 -0.9810 0.1939
vn 0.0000 -0.6804 0.7328
vn -0.0000 -0.9768 0.2140
vn -0.0000 0.0106 0.9999
vn 0.7250 -0.3192 0.6104
vn 0.7262 -0.2866 0.6250
vn 0.0000 0.1205 0.9927
vn -0.0000 -0.1277 0.9918
vn -0.0000 0.4260 0.9047
vn 0.0000 0.8621 -0.5067
vn 0.0000 0.8646 -0.5024
vn -0.9626 0.0628 -0.2635
vn -0.6772 0.3568 -0.6435
vn -0.9416 -0.3355 0.0283
vn -0.8501 -0.0769 0.5210
vn -0.6133 -0.5411 -0.5754
vn -0.7967 -0.5138 -0.3182
vn -0.8177 -0.5715 -0.0686
vn -0.8202 -0.5606 -0.1140
vn 0.0000 0.0000 1.0000
vn -0.7250 -0.3192 0.6104
vn -0.7262 -0.2866 0.6250
usemtl colors_miku.002
s 1
f 1/1/1 2/2/2 4/3/3
f 2/2/2 1/1/1 3/4/4
f 2/2/2 5/5/5 4/3/3
f 5/5/5 15/6/6 4/3/3
f 5/5/5 6/7/7 7/8/8
f 2/2/2 6/7/7 5/5/5
f 18/9/9 5/5/5 7/8/8
f 5/5/5 18/9/9 15/6/6
f 20/10/10 18/9/9 7/8/8
f 20/10/10 7/8/8 8/11/11
f 8/11/11 7/8/8 22/12/12
f 7/8/8 6/7/7 22/12/12
f 8/11/11 22/12/12 24/13/13
f 23/14/14 22/12/12 6/7/7
f 25/15/15 23/14/14 9/16/16
f 23/14/14 6/7/7 9/16/16
f 6/7/7 10/17/17 9/16/16
f 9/16/16 10/17/17 32/18/18
f 9/16/16 32/18/18 25/15/15
f 10/17/17 33/19/19 32/18/18
f 3/4/4 34/20/20 33/19/19
f 10/17/17 3/4/4 33/19/19
f 2/2/2 3/4/4 10/17/17
f 6/7/7 2/2/2 10/17/17
f 3/4/4 1/1/1 34/20/20
f 34/20/20 1/1/1 35/21/21
f 1/1/1 4/3/3 35/21/21
f 15/6/6 36/22/22 4/3/3
f 8/11/11 24/13/13 20/10/10
f 11/23/23 14/24/24 12/25/25
f 12/25/25 13/26/26 11/23/23
f 12/25/25 14/24/24 16/27/27
f 16/27/27 14/24/24 15/6/6
f 16/27/27 19/28/28 17/29/29
f 12/25/25 16/27/27 17/29/29
f 18/9/9 19/28/28 16/27/27
f 16/27/27 15/6/6 18/9/9
f 20/10/10 19/28/28 18/9/9
f 20/10/10 21/30/30 19/28/28
f 21/30/30 22/12/12 19/28/28
f 19/28/28 22/12/12 17/29/29
f 21/30/30 24/13/13 22/12/12
f 23/14/14 17/29/29 22/12/12
f 23/14/31 27/31/31 28/32/31 25/15/31
f 25/15/15 26/33/32 23/14/14
f 23/14/14 26/33/32 17/29/29
f 27/31/31 29/34/31 30/35/31 28/32/31
f 17/29/29 26/33/32 31/36/33
f 26/33/32 32/18/18 31/36/33
f 26/33/32 25/15/15 32/18/18
f 31/36/33 32/18/18 33/19/19
f 13/26/26 33/19/19 34/20/20
f 31/36/33 33/19/19 13/26/26
f 12/25/25 31/36/33 13/26/26
f 17/29/29 31/36/33 12/25/25
f 13/26/26 34/20/20 11/23/23
f 34/20/20 35/21/21 11/23/23
f 11/23/23 35/21/21 14/24/24
f 15/6/6 14/24/24 36/22/22
f 21/30/30 20/10/10 24/13/13
l 35 36
