# Blender v2.92.0 OBJ File: 'miku_test.blend'
# www.blender.org
mtllib hair.mtl
o Miku.002_Plane.002
v 0.075947 1.426804 0.062431
v 0.111312 1.409469 0.000123
v 0.093280 1.487476 0.027124
v 0.053001 1.327405 -0.006279
v 0.039873 1.455999 0.080906
v 0.046250 1.427586 0.078806
v 0.060357 1.554986 0.017321
v 0.087802 1.529862 -0.080731
v 0.085930 1.452607 -0.101347
v 0.110345 1.505064 -0.019356
v 0.110272 1.443631 -0.024075
v 0.139114 1.486113 0.030971
v 0.133332 1.497107 -0.020783
v 0.096247 1.583309 -0.022561
v 0.082416 1.573052 0.021293
v 0.051618 1.589471 -0.040927
v 0.135802 1.443907 -0.032968
v 0.137974 1.426629 0.019296
v 0.111312 1.409469 0.000123
v 0.111312 1.409469 0.000123
v 0.111312 1.409469 0.000123
v 0.111312 1.409469 0.000123
v 0.111312 1.409469 0.000123
v 0.111312 1.409469 0.000123
v 0.111312 1.409469 0.000123
v 0.053001 1.327405 -0.006279
v 0.076894 1.353648 -0.026659
v 0.080610 1.373506 -0.064384
v 0.055510 1.384903 -0.104337
v 0.032942 1.483736 -0.234093
v 0.032942 1.483736 -0.234093
v 0.032942 1.483736 -0.234093
v -0.075947 1.426804 0.062431
v -0.111312 1.409469 0.000123
v -0.093280 1.487476 0.027124
v -0.053001 1.327405 -0.006279
v -0.039873 1.455999 0.080906
v -0.046250 1.427586 0.078806
v 0.000000 1.496096 0.084320
v 0.000000 1.457211 0.091707
v 0.000000 1.422483 0.099448
v 0.000000 1.457211 0.091707
v 0.000000 1.422483 0.099448
v -0.060357 1.554986 0.017321
v 0.000000 1.564550 0.037505
v 0.000000 1.496096 0.084320
v 0.000000 1.564550 0.037505
v 0.000000 1.564550 0.037505
v 0.000000 1.564550 0.037505
v 0.000000 1.585667 -0.053694
v 0.000000 1.558675 -0.127580
v -0.087802 1.529862 -0.080731
v -0.085930 1.452607 -0.101347
v 0.000000 1.482029 -0.152638
v -0.110345 1.505064 -0.019356
v -0.110272 1.443631 -0.024075
v -0.139114 1.486113 0.030971
v -0.133332 1.497107 -0.020783
v -0.096247 1.583309 -0.022561
v -0.082416 1.573052 0.021293
v -0.051618 1.589471 -0.040927
v 0.000000 1.572340 0.026583
v 0.000000 1.591467 -0.038994
v -0.135802 1.443907 -0.032968
v -0.137974 1.426629 0.019296
v -0.111312 1.409469 0.000123
v -0.111312 1.409469 0.000123
v -0.111312 1.409469 0.000123
v -0.111312 1.409469 0.000123
v -0.111312 1.409469 0.000123
v -0.111312 1.409469 0.000123
v -0.111312 1.409469 0.000123
v -0.053001 1.327405 -0.006279
v -0.076894 1.353648 -0.026659
v -0.080610 1.373506 -0.064384
v -0.055510 1.384903 -0.104337
v 0.000000 1.407801 -0.147311
v 0.000000 1.397222 -0.123702
v 0.000000 1.481344 -0.152786
v 0.000000 1.481344 -0.152786
v 0.000000 1.558675 -0.127580
v 0.000000 1.214324 -0.268692
v 0.000000 1.481344 -0.152786
v 0.000000 1.475308 -0.235273
v -0.032942 1.483736 -0.234093
v -0.032942 1.483736 -0.234093
v -0.032942 1.483736 -0.234093
v 0.000000 1.558675 -0.127580
v 0.000000 1.475308 -0.235273
v 0.000000 1.475308 -0.235273
v 0.000000 1.481344 -0.152786
v 0.000000 1.545948 -0.131472
vt 0.000000 0.000000
vt 0.000000 0.000000
vt 0.000000 0.000000
vt 0.000000 0.000000
vt 0.000000 0.000000
vt 0.000000 0.000000
vt 0.000000 0.000000
vt 0.000000 0.000000
vt 0.000000 0.000000
vt 0.000000 0.000000
vt 0.000000 0.000000
vt 0.000000 0.000000
vt 0.000000 0.000000
vt 0.000000 0.000000
vt 0.000000 0.000000
vt 0.000000 0.000000
vt 0.000000 0.000000
vt 0.000000 0.000000
vt 0.000000 0.000000
vt 0.000000 0.000000
vt 0.000000 0.000000
vt 0.000000 0.000000
vt 0.000000 0.000000
vt 0.000000 0.000000
vt 0.000000 0.000000
vt 0.000000 0.000000
vt 0.000000 0.000000
vt 0.000000 0.000000
vt 0.217819 0.968935
vt 0.217819 0.968935
vt 0.217819 0.968935
vt 0.217819 0.968935
vt 0.217819 0.968935
vt 0.217819 0.968935
vt 0.217819 0.968935
vt 0.217819 0.968935
vt 0.217819 0.968935
vt 0.217819 0.968935
vt 0.217819 0.968935
vt 0.217819 0.968935
vt 0.217819 0.968935
vt 0.217819 0.968935
vt 0.217819 0.968935
vt 0.217819 0.968935
vt 0.217819 0.968935
vt 0.217819 0.968935
vt 0.217819 0.968935
vt 0.217819 0.968935
vt 0.217819 0.968935
vt 0.217819 0.968935
vt 0.000000 0.000000
vt 0.217819 0.968935
vt 0.217819 0.968935
vt 0.217819 0.968935
vt 0.217819 0.968935
vt 0.217819 0.968935
vt 0.217819 0.968935
vt 0.217819 0.968935
vt 0.217819 0.968935
vt 0.217819 0.968935
vt 0.217819 0.968935
vt 0.000000 0.000000
vt 0.000000 0.000000
vt 0.217819 0.968935
vt 0.217819 0.968935
vt 0.217819 0.968935
vt 0.217819 0.968935
vt 0.217819 0.968935
vt 0.217819 0.968935
vt 0.217819 0.968935
vt 0.217819 0.968935
vt 0.217819 0.968935
vt 0.217819 0.968935
vt 0.217819 0.968935
vt 0.217819 0.968935
vt 0.217819 0.968935
vt 0.217819 0.968935
vt 0.217819 0.968935
vt 0.217819 0.968935
vt 0.217819 0.968935
vt 0.217819 0.968935
vt 0.217819 0.968935
vt 0.217819 0.968935
vt 0.217819 0.968935
vt 0.217819 0.968935
vt 0.217819 0.968935
vt 0.217819 0.968935
vt 0.217819 0.968935
vt 0.217819 0.968935
vt 0.217819 0.968935
vt 0.217819 0.968935
vt 0.217819 0.968935
vt 0.217819 0.968935
vt 0.217819 0.968935
vt 0.217819 0.968935
vt 0.000000 0.000000
vt 0.217819 0.968935
vn 0.0353 -0.0766 0.9964
vn 0.2666 0.5625 0.7827
vn 0.2318 0.2897 -0.9286
vn 0.2319 0.2896 -0.9287
vn 0.9051 -0.1612 0.3934
vn 0.0000 0.0000 1.0000
vn -0.1775 0.7782 -0.6024
vn 0.0000 0.0000 -0.0000
vn 0.8158 0.0249 0.5778
vn 0.0000 0.0000 -0.3032
vn -0.9525 -0.0290 -0.3032
vn 0.0000 0.0000 0.1619
vn -0.9410 -0.2973 0.1619
vn 0.9371 0.1401 -0.3196
vn -0.0353 -0.0766 0.9964
vn -0.2666 0.5625 0.7827
vn -0.2318 0.2897 -0.9286
vn -0.2317 0.2897 -0.9286
vn -0.2319 0.2896 -0.9287
vn -0.9051 -0.1612 0.3934
vn 0.1775 0.7782 -0.6024
vn -0.8158 0.0249 0.5778
vn -0.9525 0.0290 -0.3032
vn -0.9615 0.2222 0.1619
vn -0.9371 0.1401 -0.3196
vn 0.2177 -0.1680 0.9614
vn 0.2376 -0.0982 0.9664
vn 0.7495 -0.0102 0.6619
vn 0.6939 0.3171 0.6464
vn 0.3000 0.0692 0.9514
vn 0.3194 0.0876 0.9435
vn 0.3160 0.0739 0.9459
vn -0.1277 0.2629 0.9563
vn 0.0076 0.1382 0.9904
vn 0.5450 0.7292 0.4138
vn 0.0000 0.8044 0.5941
vn 0.0000 0.9939 -0.1103
vn -0.6644 0.6553 -0.3595
vn 0.7482 0.5080 -0.4267
vn 0.0000 0.2076 -0.9782
vn 0.9138 0.4062 -0.0052
vn 0.7767 -0.0460 -0.6281
vn -0.9179 -0.1599 -0.3632
vn -0.5666 -0.7287 -0.3847
vn -0.5289 -0.7607 -0.3763
vn 0.9590 0.0358 0.2810
vn 0.9667 0.0994 0.2357
vn 0.9416 -0.0269 0.3355
vn 0.0081 -0.9349 -0.3548
vn -0.1887 -0.9497 -0.2498
vn -0.7776 -0.6136 -0.1377
vn 0.9485 -0.0753 -0.3076
vn -0.7394 -0.6621 0.1220
vn -0.0266 -0.9657 -0.2585
vn -0.0000 -0.9643 -0.2647
vn 0.0000 -0.9600 -0.2800
vn -0.7024 0.0707 0.7083
vn 0.3244 -0.1969 0.9252
vn -0.9203 0.3585 0.1568
vn -0.6488 0.7141 0.2630
vn 0.0000 0.0000 0.4802
vn 0.9697 0.1603 0.1846
vn 0.8383 -0.2979 -0.4566
vn 0.8521 -0.2675 -0.4499
vn 0.6589 -0.2650 -0.7040
vn -0.0000 -0.9990 -0.0439
vn 0.0000 -0.1270 0.9919
vn -0.0013 -0.0550 0.9985
vn 0.2478 -0.9687 -0.0174
vn -0.9165 -0.1560 -0.3683
vn -0.2177 -0.1680 0.9614
vn -0.7495 -0.0102 0.6619
vn -0.2376 -0.0982 0.9664
vn -0.6939 0.3171 0.6464
vn -0.3000 0.0692 0.9514
vn -0.3160 0.0739 0.9459
vn -0.3669 0.1426 0.9193
vn 0.0000 0.0000 0.9986
vn -0.5450 0.7292 0.4138
vn 0.0000 0.0000 0.9791
vn -0.7482 0.5080 -0.4267
vn -0.9138 0.4062 -0.0052
vn -0.7767 -0.0460 -0.6281
vn 0.9179 -0.1599 -0.3632
vn 0.5289 -0.7607 -0.3763
vn 0.5666 -0.7287 -0.3847
vn -0.9590 0.0358 0.2810
vn -0.9416 -0.0269 0.3355
vn -0.9667 0.0994 0.2357
vn -0.0081 -0.9349 -0.3548
vn 0.7776 -0.6136 -0.1377
vn 0.1887 -0.9497 -0.2498
vn -0.9485 -0.0753 -0.3076
vn 0.7394 -0.6621 0.1220
vn 0.0267 -0.9657 -0.2584
vn 0.7024 0.0707 0.7083
vn -0.3244 -0.1969 0.9252
vn 0.9203 0.3585 0.1568
vn 0.6488 0.7141 0.2630
vn -0.9697 0.1603 0.1846
vn -0.8383 -0.2979 -0.4566
vn -0.8521 -0.2675 -0.4499
vn -0.6589 -0.2650 -0.7040
vn 0.0005 0.0000 0.7810
vn 0.9876 0.0000 -0.1569
vn -1.0000 0.0002 -0.0040
vn 0.0000 0.0000 -0.0174
vn 0.0013 -0.0550 0.9985
vn 0.0556 0.0098 0.9984
vn 0.9165 -0.1560 -0.3683
vn 0.9982 0.0539 -0.0265
usemtl colors_miku.002
s off
f 13/1/1 10/2/1 11/3/1
f 19/4/2 17/5/2 11/3/2
f 3/6/3 18/7/4 19/4/3
f 51/8/5 82/9/5 31/10/5
f 51/8/6 32/11/6 88/12/6
f 89/13/7 88/12/7 32/11/7
f 2/14/8 20/15/8 19/4/8
f 11/3/9 2/14/10 19/4/11
f 3/6/3 12/16/3 18/7/3
f 19/4/12 2/14/13 3/6/14
f 51/8/6 31/10/6 32/11/6
f 58/17/15 56/18/15 55/19/15
f 66/20/16 56/18/16 64/21/16
f 35/22/17 66/20/18 65/23/19
f 51/8/20 86/24/20 82/9/20
f 51/8/6 88/12/6 87/25/6
f 89/13/21 87/25/21 88/12/21
f 34/26/8 66/20/8 67/27/8
f 56/18/22 66/20/10 34/26/23
f 35/22/17 65/23/17 57/28/17
f 66/20/24 35/22/25 34/26/12
f 51/8/6 87/25/6 86/24/6
s 1
f 4/29/26 2/30/27 1/31/28
f 1/31/28 2/30/27 3/32/29
f 1/31/28 3/32/29 5/33/30
f 5/33/30 41/34/31 6/35/32
f 39/36/33 5/33/30 3/32/29
f 40/37/34 5/33/30 39/36/33
f 39/36/33 3/32/29 7/38/35
f 7/38/35 45/39/36 39/36/33
f 7/38/35 50/40/37 45/39/36
f 51/41/38 50/40/37 8/42/39
f 8/42/39 50/40/37 7/38/35
f 8/42/39 54/43/40 51/41/38
f 10/44/41 9/45/42 8/42/39
f 8/42/39 9/45/42 54/43/40
f 7/38/35 10/44/41 8/42/39
f 10/44/41 7/38/35 3/32/29
f 10/44/43 15/46/44 14/47/45
f 3/32/46 11/48/47 10/44/48
f 3/32/49 10/44/50 12/16/51
f 10/44/41 11/48/52 9/45/42
f 12/16/51 10/44/50 13/1/53
f 15/46/44 16/49/54 14/47/45
f 16/49/54 62/50/55 63/51/56
f 13/1/53 17/5/57 12/16/51
f 17/5/57 13/1/53 11/3/58
f 17/5/57 18/7/59 12/16/51
f 18/7/59 17/5/57 19/4/60
f 21/52/61 24/53/6 23/54/6
f 2/30/27 22/55/6 21/52/61
f 2/30/27 26/56/6 25/57/6
f 3/32/46 2/30/62 11/48/47
f 2/30/63 27/58/63 11/48/63
f 28/59/64 9/45/42 11/48/52
f 28/59/64 29/60/65 9/45/42
f 9/45/42 29/60/65 77/61/66
f 9/45/42 77/61/66 54/43/40
f 84/62/67 30/63/68 31/10/69
f 5/33/30 40/37/34 41/34/31
f 10/44/43 3/32/70 15/46/44
f 15/46/44 62/50/55 16/49/54
f 2/30/27 21/52/61 19/64/6
f 21/52/61 22/55/6 24/53/6
f 2/30/27 25/57/6 22/55/6
f 2/30/27 4/29/26 26/56/6
f 84/62/67 82/9/67 30/63/68
f 36/65/71 33/66/72 34/67/73
f 33/66/72 35/68/74 34/67/73
f 33/66/72 37/69/75 35/68/74
f 37/69/75 38/70/76 41/34/77
f 39/36/33 35/68/74 37/69/75
f 40/37/34 39/36/33 37/69/75
f 41/34/78 43/71/6 42/72/6
f 39/36/33 44/73/79 35/68/74
f 44/73/79 39/36/33 45/39/36
f 39/36/80 46/74/6 47/75/6
f 47/75/6 48/76/6 49/77/6
f 44/73/79 45/39/36 50/40/37
f 51/41/38 52/78/81 50/40/37
f 52/78/81 44/73/79 50/40/37
f 52/78/81 51/41/38 54/43/40
f 55/79/82 52/78/81 53/80/83
f 52/78/81 54/43/40 53/80/83
f 44/73/79 52/78/81 55/79/82
f 55/79/82 35/68/74 44/73/79
f 55/79/84 59/81/85 60/82/86
f 35/68/87 55/79/88 56/83/89
f 35/68/90 57/28/91 55/79/92
f 55/79/82 53/80/83 56/83/93
f 57/28/91 58/17/94 55/79/92
f 60/82/86 59/81/85 61/84/95
f 61/84/95 63/51/56 62/50/55
f 58/17/94 57/28/91 64/21/96
f 64/21/96 56/18/97 58/17/94
f 64/21/96 57/28/91 65/23/98
f 65/23/98 66/20/99 64/21/96
f 68/85/61 70/86/6 71/87/6
f 34/67/73 68/85/61 69/88/6
f 34/67/73 72/89/6 73/90/6
f 35/68/87 56/83/89 34/67/100
f 34/67/101 56/83/101 74/91/101
f 75/92/102 56/83/93 53/80/83
f 75/92/102 53/80/83 76/93/103
f 53/80/83 77/61/66 76/93/103
f 53/80/83 54/43/40 77/61/66
f 51/41/104 81/94/105 80/95/106
f 84/62/67 86/24/107 85/96/108
f 37/69/75 41/34/77 40/37/34
f 41/34/78 42/72/6 40/37/109
f 39/36/80 47/75/6 45/39/6
f 47/75/6 49/77/6 45/39/6
f 55/79/84 60/82/86 35/68/110
f 60/82/86 61/84/95 62/50/55
f 34/67/73 66/97/6 68/85/61
f 68/85/61 71/87/6 69/88/6
f 34/67/73 69/88/6 72/89/6
f 34/67/73 73/90/6 36/65/71
f 51/41/104 80/95/106 54/43/111
f 84/62/67 85/96/108 82/9/67
l 77 78
l 79 54
l 80 82
l 80 83
l 89 84
l 81 30
l 90 84
l 91 79
l 51 92
l 81 85
