# Blender v2.92.0 OBJ File: 'miku_test.blend'
# www.blender.org
mtllib toplegs.mtl
o Miku.001_Plane.001
v 0.140933 0.677931 -0.063471
v 0.097116 0.708586 0.150400
v 0.118272 0.815358 -0.061054
v 0.019028 0.815358 -0.061054
v 0.020229 0.792470 0.153684
v 0.084415 0.792470 0.153684
v 0.031557 0.767361 0.346421
v 0.093361 0.767363 0.346421
v 0.103059 0.687476 0.340432
v 0.036554 0.744625 0.431289
v 0.097273 0.744627 0.431289
v 0.037028 0.661007 0.440175
v 0.098832 0.661006 0.440177
v 0.008842 0.685795 0.347728
v -0.140933 0.677931 -0.063471
v 0.000000 0.663250 -0.064046
v -0.097116 0.708586 0.150400
v -0.118272 0.815358 -0.061054
v -0.019028 0.815358 -0.061054
v 0.000000 0.695575 0.149891
v -0.020229 0.792470 0.153684
v -0.084415 0.792470 0.153684
v -0.031557 0.767361 0.346421
v -0.093361 0.767363 0.346421
v -0.103059 0.687476 0.340432
v -0.036554 0.744625 0.431289
v -0.097273 0.744627 0.431289
v -0.037028 0.661007 0.440175
v -0.098832 0.661006 0.440177
v -0.008842 0.685795 0.347728
vt 0.000000 0.000000
vt 0.000000 0.000000
vt 0.000000 0.000000
vt 0.156631 0.968935
vt 0.156631 0.968935
vt 0.156631 0.968935
vt 0.000000 0.000000
vt 0.000000 0.000000
vt 0.000000 0.000000
vt 0.156631 0.968935
vt 0.156631 0.968935
vt 0.156631 0.968935
vt 0.156631 0.968935
vt 0.156631 0.968935
vt 0.156631 0.968935
vt 0.156631 0.968935
vt 0.156631 0.968935
vt 0.156631 0.968935
vt 0.156631 0.968935
vt 0.156631 0.968935
vt 0.156631 0.968935
vt 0.156631 0.968935
vt 0.156631 0.968935
vt 0.156631 0.968935
vt 0.156631 0.968935
vt 0.156631 0.968935
vt 0.156631 0.968935
vt 0.156631 0.968935
vt 0.156631 0.968935
vt 0.156631 0.968935
vt 0.156631 0.968935
vt 0.156631 0.968935
vt 0.156631 0.968935
vt 0.156631 0.968935
vt 0.156631 0.968935
vt 0.156631 0.968935
vn -0.9985 -0.0238 -0.0486
vn -0.3272 0.8704 0.3678
vn 0.3359 0.8922 0.3020
vn -0.0164 0.9749 0.2222
vn 0.9985 -0.0238 -0.0486
vn 0.3272 0.8704 0.3678
vn 0.0164 0.9749 0.2222
vn -0.3359 0.8922 0.3020
vn -0.5748 -0.6234 -0.5300
vn -0.5263 0.6474 -0.5513
vn 0.6972 -0.5247 -0.4885
vn 0.8037 -0.5906 0.0725
vn 0.5679 0.6456 -0.5106
vn 0.6214 0.7729 0.1282
vn -0.7596 -0.6482 0.0531
vn -0.6334 0.7660 0.1101
vn -0.5639 0.7916 0.2353
vn 0.6484 0.7530 0.1122
vn -0.6650 0.7133 0.2213
vn 0.4535 0.8772 0.1576
vn 0.6144 -0.6679 -0.4201
vn -0.0063 -0.1104 -0.9939
vn -0.0256 0.8861 -0.4629
vn 0.0654 -0.1474 -0.9869
vn -0.0159 0.4458 -0.8950
vn -0.8893 -0.3003 -0.3449
vn -0.7738 0.1209 0.6218
vn 0.1959 0.8368 0.5112
vn 0.5748 -0.6234 -0.5300
vn -0.6972 -0.5247 -0.4885
vn 0.5263 0.6474 -0.5513
vn -0.8037 -0.5906 0.0725
vn -0.5679 0.6456 -0.5106
vn -0.6214 0.7729 0.1282
vn 0.7668 -0.6395 0.0557
vn 0.6334 0.7660 0.1101
vn 0.5639 0.7916 0.2353
vn -0.6484 0.7530 0.1122
vn 0.6650 0.7133 0.2213
vn -0.6144 -0.6679 -0.4201
vn -0.4535 0.8772 0.1576
vn 0.0063 -0.1104 -0.9939
vn -0.0654 -0.1474 -0.9869
vn 0.0256 0.8861 -0.4629
vn 0.0159 0.4458 -0.8950
vn 0.8893 -0.3003 -0.3449
vn 0.7738 0.1209 0.6218
vn -0.1959 0.8368 0.5112
usemtl colors_miku.002
s off
f 13/1/1 11/2/1 9/3/1
f 9/4/2 14/5/3 13/6/4
f 29/7/5 25/8/5 27/9/5
f 25/10/6 29/11/7 30/12/8
s 1
f 16/13/9 4/14/10 1/15/11
f 16/13/9 1/15/11 2/16/12
f 3/17/13 2/16/12 1/15/11
f 3/17/13 1/15/11 4/14/10
f 4/14/10 6/18/14 3/17/13
f 4/14/10 16/13/9 20/19/15
f 4/14/10 20/19/15 5/20/16
f 4/14/10 5/20/16 6/18/14
f 3/17/13 6/18/14 2/16/12
f 6/18/14 5/20/16 7/21/17
f 6/18/14 7/21/17 8/22/18
f 2/16/12 6/18/14 8/22/18
f 8/22/18 7/21/17 10/23/19
f 8/22/18 11/24/20 9/4/21
f 2/16/12 8/22/18 9/4/21
f 8/22/18 10/23/19 11/24/20
f 11/24/22 12/25/23 10/23/24
f 11/24/22 13/6/25 12/25/23
f 14/5/26 12/25/27 10/23/19
f 20/19/15 14/5/26 7/21/17
f 14/5/26 10/23/19 7/21/17
f 2/16/12 9/4/21 14/5/26
f 2/16/12 14/5/26 20/19/15
f 20/19/15 7/21/17 5/20/16
f 16/13/9 2/16/12 20/19/15
f 12/25/23 13/6/25 14/5/28
f 16/13/29 15/26/30 19/27/31
f 16/13/29 17/28/32 15/26/30
f 18/29/33 15/26/30 17/28/32
f 18/29/33 19/27/31 15/26/30
f 19/27/31 18/29/33 22/30/34
f 19/27/31 20/19/35 16/13/29
f 19/27/31 21/31/36 20/19/35
f 19/27/31 22/30/34 21/31/36
f 18/29/33 17/28/32 22/30/34
f 22/30/34 23/32/37 21/31/36
f 22/30/34 24/33/38 23/32/37
f 17/28/32 24/33/38 22/30/34
f 24/33/38 26/34/39 23/32/37
f 24/33/38 25/10/40 27/35/41
f 17/28/32 25/10/40 24/33/38
f 24/33/38 27/35/41 26/34/39
f 27/35/42 26/34/43 28/36/44
f 27/35/42 28/36/44 29/11/45
f 30/12/46 26/34/39 28/36/47
f 20/19/35 23/32/37 30/12/46
f 30/12/46 23/32/37 26/34/39
f 17/28/32 30/12/46 25/10/40
f 17/28/32 20/19/35 30/12/46
f 20/19/35 21/31/36 23/32/37
f 16/13/29 20/19/35 17/28/32
f 28/36/44 30/12/48 29/11/45
